# xmcd CD database file
#
# Track frame offsets:
#	150
#	24537
#	46507
#	68355
#	88496
#	108066
#	128960
#	144668
#	165419
#	183101
#	197213
#	223077
#	243020
#
# Disc length: 3472 seconds
#
# Revision: 0
# Processed by: cddbd v1.5.2PL0 Copyright (c) Steve Scherf et al.
# Submitted via: CDex 1.51
#
DISCID=a80d8e0d
DTITLE=Tommy Emmanuel - Determination
DYEAR=1991
DGENRE=Jazz
TTITLE0=Who Dares Wins
TTITLE1=Mountain Of Truth
TTITLE2=Determination
TTITLE3='Cross The Nullabor
TTITLE4=Initiation
TTITLE5=From The Hip
TTITLE6=Imagine
TTITLE7=When You Come Home
TTITLE8=Fiesta
TTITLE9=Precious Time
TTITLE10=The Sweetest Love
TTITLE11=Stevie's Blues
TTITLE12=Nu Shoos Blues
EXTD=YEAR: 1991
EXTT0=
EXTT1=
EXTT2=
EXTT3=
EXTT4=
EXTT5=
EXTT6=
EXTT7=
EXTT8=
EXTT9=
EXTT10=
EXTT11=
EXTT12=
PLAYORDER=
